<?xml version="1.0" encoding="UTF-8"?>
<svg width="425" height="445" viewBox="0 0 340 356" xmlns="http://www.w3.org/2000/svg">
 <path d="m0 0h340v356h-340v-356z" fill="#fff"/>
 <path d="m205.52,24.52c1.72-2.95 4.65-4.81 7.47-6.56 1.19,0 2.35.17 3.49.5 1.8,1.21 3.67,2.67 3.91,5 .39,1.29.63,2.62.89,3.94 .58,1.73.85,3.54 1.51,5.25 .09,2.07.37,4.12 1.43,5.94 .73,1.32 1.41,2.66 2.06,4.01 2.15,5.68 7.6,9.71 8.37,15.9 .31,1.01.65,2.01 1.01,3 .42,1.39.99,2.73 1.58,4.05 1.42,2.51 2.13,5.33 3.43,7.89 .26.49.78,1.46 1.05,1.95 .97,2.02 1.97,4.02 3,6.02 .97,2.01 1.97,4.01 3.01,5.99 1.4,2.63 2.39,5.43 3.5,8.18 1.73,2.84 2.74,6.02 4.1,9.04 .55,1.6.82,3.28 1.33,4.89 .31,1.01.65,2.01 1.01,3 .33,1.05.7,2.07 1.12,3.09 .11.44.34,1.33.45,1.77 .81,1.54.76,3.3.98,4.98 .77,2.84 1.55,5.68 3.04,8.27 .49.92.98,1.84 1.47,2.77 .63,1.35 1.29,2.7 1.94,4.05 1.67,2.59 3.16,5.44 5.7,7.32 1.32.28 2.67.45 4,.76 1.64,1.12 3.25,2.31 5.04,3.2 2.49,1.41 4.8,3.12 7.16,4.74 1.15.71 2.21.55 3.17-.49 2.69-.5 4.46,1.71 6.67,2.76 1.42.79 2.75,1.75 4.18,2.54 2,1.05 3.82,2.41 5.83,3.46 1.68.96 3.26,2.1 4.99,3 1.69.95 3.27,2.1 5,2.99 1.43.79 2.74,1.76 4.16,2.58 2.77,1.19 5.22,2.96 7.85,4.42 1.43.8 2.75,1.79 4.16,2.65 .68.27 2.04.79 2.72,1.06-.14.5-.44,1.52-.59,2.02-9.98,15.06-20.15,29.99-29.99,45.13-11.45,18.16-23.96,35.67-35.45,53.8-11.88-9.33-24.04-18.29-35.91-27.62-2.31-1.9-4.91-3.4-7.41-5.03 1.06-1.21 2.73-2.32.93-3.81l1.63.11c2.61-4.54 5.7-8.8 8.67-13.11-3.68-3.99-8.67-6.65-12.69-10.34l-2.32-.79c-.44-1.24-1.05-2.41-1.3-3.7 .54-1.29 2.22-2.16 2.17-3.61-1.73-1.47-3.7-2.61-5.6-3.84-1.84-.94-3.75-1.74-5.84-1.91-1.85-.99-4.24-1.14-6.09-.06-1.25-.88-2.78-.82-4.04,0-.99-.35-1.99-.68-2.99-.97-1.71-.62-3.43-1.21-5.1-1.94l-2-1c-1.71-.94-3.28-2.08-4.94-3.08-1.31-.64-2.62-1.29-3.92-1.94-.71,1.59-1.46,3.16-2.29,4.69-.88,2.03-1.6,4.13-2.45,6.17-.51.93-1.01,1.85-1.51,2.78-.64,1.36-1.3,2.7-1.98,4.04-.25.49-.74,1.48-.99,1.97-.66,1.35-1.34,2.7-2.04,4.03-.22.51-.68,1.52-.91,2.03-3.15,4.85-6.5,9.66-10.82,13.55-.38-.7-2.58-1.49-.86-2.22 4.48-4.03 8.01-8.99 11.09-14.14 .78-1.77 1.68-3.49 2.52-5.24 2.21-3.77 3.57-7.93 5.48-11.85 1.04-2.42 1.79-4.98 3.18-7.24-2.03-.86-3.78-2.24-5.65-3.4-.47,1.25-1.01,2.48-1.53,3.71l-1.05,1.96c-.47.94-.95,1.88-1.43,2.82-1.16,2.41-2.41,4.78-3.55,7.21-.49.92-.98,1.85-1.47,2.78-1.55,2.91-2.56,6.06-3.87,9.09-2.18,3.07-4.6,5.97-6.78,9.05l-.81,2.05c-3.65,1.91-6.02,5.47-9.05,8.16-2.85,2.53-5.19,5.53-7.12,8.81-.9,1.89-1.63,3.86-2.31,5.85-.25.51-.75,1.51-1,2.01-.25,1.28-.7,2.51-1.39,3.62l2.87-.57-.84.51c1.4,1.57 1.38,3.92.31,5.64-.26,1.35-.46,2.74-1.03,4.02l-.44,1.77c-.42,1.01-.82,2.03-1.2,3.06-.53,1.45-.61,2.99-.76,4.5l1.66.04c.74,1.41 1.71,2.66 2.56,4-1.3,1.67-2.2,3.54-2.88,5.54-.1.46-.31,1.39-.42,1.85-.63,1.66-.9,3.43-1.39,5.14-.36,1.03-.75,2.05-1.17,3.07-.1.45-.3,1.35-.41,1.8-.41,1.01-.79,2.04-1.13,3.08-.35,1-.68,2-.97,3.01-.37.99-.7,1.99-1.01,3-.36.99-.69,1.99-1,3-.36.99-.69,1.99-.99,3.01-.37.98-.72,1.98-1.04,2.99-.52,1.69-.79,3.45-1.4,5.12-.13.44-.38,1.33-.5,1.77-.46,1.27-.83,2.58-1.11,3.91-1.11-.31-2.19-.66-3.25-1.07l-1.84-.41c-1.72-.7-3.48-1.31-5.16-2.11-.95-.38-1.91-.72-2.88-1.03-1-.36-2-.69-3.01-.99-1-.36-2.01-.69-3.03-.98-1.34-.51-2.71-.95-4.03-1.49l-1.84-.43c-1.03-.41-2.07-.77-3.13-1.1-1.34-.5-2.71-.92-4.03-1.47l-1.89-.41c-1.29-.55-2.62-.99-3.91-1.52-1.67-.76-3.39-1.38-5.11-1.99-1.02-.29-2.04-.61-3.05-.94-1.04-.35-2.07-.73-3.08-1.14-.45-.11-1.35-.31-1.8-.42-1.02-.41-2.04-.79-3.08-1.13-1-.35-2-.68-3.01-.97-1-.37-2-.71-3-1.02-1.01-.35-2.02-.68-3.04-.97-1.27-.49-2.57-.9-3.82-1.41-1.67-.78-3.39-1.38-5.12-1.98-1.06-.32-2.1-.69-3.13-1.09l-1.8-.43c-1.02-.42-2.04-.79-3.08-1.12-1-.36-2-.69-3.02-.99-1-.36-2.01-.69-3.03-.98-1.34-.51-2.7-.95-4.03-1.49l-1.89-.41c-1.29-.55-2.61-.99-3.91-1.52-1.35-.61-2.71-1.2-4.13-1.63-1-.35-2-.66-3.01-.95-.98-.38-1.98-.73-2.98-1.06-1.26-.38-2.54-.72-3.84-1 .26-.52.77-1.57 1.02-2.1 .38-1.44.96-2.82 1.59-4.16 .38-.95.73-1.91 1.05-2.87 .35-1.01.66-2.03.95-3.05 .61-1.71 1.23-3.43 2-5.07 .38-.96.72-1.94 1.03-2.92 .48-1.31.88-2.64 1.37-3.94 .3-1.03.62-2.04.97-3.04 .32-.97.66-1.93 1.04-2.87 .63-1.34 1.22-2.7 1.65-4.11 .35-1 .67-2 .97-3.01 .35-1 .68-2.01.98-3.03 .67-2.1 1.44-4.17 2.57-6.07-2.13-.69.28-2.37 1.19-2.42 1.51-.1 3.08-.03 4.46.66 1.01.32 2,.67 2.99,1.03 1.05.33 2.08.7 3.09,1.12l1.78.43c1.04.4 2.1.75 3.17,1.07 .29-.69.86-2.08 1.15-2.77 .29-.98.63-1.95.99-2.9 .96-2.05 1.67-4.2 2.6-6.26 .44-2 2.04-6.47 4.46-3.27 2.57-3.51.76-8.32 1.16-12.38-1.31-1.91-.58-4.4-1.71-6.38-.22-1.69-.08-3.49-1.02-4.99-.12-.9-.24-1.79-.37-2.68-1.09-1.96-.55-4.35-1.6-6.33-.22-1.69-.1-3.49-1.03-5-.12-.89-.24-1.78-.35-2.67-1.76-2.52.16-5.91-1.75-8.37-.16-5.09-.04-10.19-.1-15.28 .04-1.62-.22-3.37.93-4.71 .07-1.87.11-3.73.19-5.6 1.6-2.36.66-5.34.98-7.99 1.34-1.74.82-4 1.06-6.01 1.21-1.95.54-4.4 1.67-6.37 .13-.89.25-1.78.38-2.66 1.1-1.97.52-4.37 1.62-6.34 .13-.89.25-1.78.38-2.66 1.02-1.96.67-4.27 1.5-6.29 .29-1.34.54-2.7 1.01-3.99 .29-1.36.5-2.74 1.05-4.02 .12-.43.38-1.3.5-1.74 .54-1.29.76-2.67 1.04-4.03 .56-1.71.86-3.49 1.42-5.2 .28-1.36.5-2.74 1.04-4.03l.48-1.74c1.56-2.77.24-6.08.98-9.02 .97-1.27 1.88-2.59 2.02-4.23 1.45-.52 2.53-1.52 3.11-2.94 .77-1.65 1.57-3.29 2.45-4.89-.74-2.49-2.28-4.61-3.23-7.01-.76-2.27-.96-4.88.12-7.08 .28-.99.58-1.97.88-2.95 2.14-2.72 4.34-6.07 7.89-6.9 2.24-.9 4.83-.9 7.07-.01 1.4.48 2.75,1.07 4.11,1.66l2.28,1.11c.06-1.57.11-3.14.16-4.7 1.65-1.2.59-2.53-.19-3.75 .41.03 1.22.09 1.63.11 .95-2.43 2.99-4.17 4.91-5.84 1.71-.26 3.48-.19 5.13-.82 .98.33 1.97.64 2.97.92 1.71.63 3.43,1.22 5.11,1.93l1.87,1.12 1.19-2.82c.23-2.7 2.86-4.09 3.79-6.49l1.88-.17c1.02-.45 2.06-.88 3.11-1.26 1.89-.74 4.02-.84 5.99-.46 1.39,1.14 2.67,2.43 4.26,3.29l1.05,1.93c.7,1.47 1.28,2.98 1.34,4.62 1.29-.8 2.8-1.02 4.28-1.25 1.58-1 3.64-1.04 5.21.03 1.29.22 2.6.43 3.89.73 1.61,1.02 2.99,2.36 3.95,4.02 .3.98.6,1.97.89,2.95 1.59,6.18.13,12.79.74,19.13 1.13,1.42 2.69,2.36 4.3,3.17 1.36.61 2.71,1.27 4.05,1.95 1.34.65 2.67,1.33 4,2.01 .49.24 1.48.73 1.97.98 1.34.66 2.68,1.33 4.02,2.01 1.35.66 2.68,1.33 4.01,2.02l2.02.92c1.39.85 2.71,1.83 4.11,2.68 1.36.65 2.71,1.31 4.06,1.96l1.99.98c4.65,2.14 8.66,5.39 12.96,8.11l2.43.92c-.18-2.33.64-4.96-.88-6.99-.09-1.54-.14-3.08-.22-4.62-1.9-2.48.14-5.94-1.81-8.4-.09-2.53-.07-5.06-.16-7.58-1.34-1.63-.84-3.77-.94-5.68 .09-7.11-.09-14.22.1-21.32 1.6-2.09.36-4.9 1.59-7.13 1.16-1.83 1.41-3.98 1.85-6.06z"/>
 <path d="m208.61,24.05c2.14-1.55 4.36-3.24 7.14-3.28l1.51,1.56c1.76,5.28 3.23,10.68 4.12,16.18 1.4,2.16 2.49,4.51 3.25,6.98 1.5,1.35 2.81,2.97 3.04,5.04 4.7,4.35 5.34,11.27 7.54,16.97 3.24,5.8 6.26,11.78 8.53,18.03 5.93,9.93 10.01,20.85 12.95,32.01 1.27,3.24 1.48,6.77 2.54,10.07 1.62,4.07 4.25,7.7 5.44,11.95 1.93,1.74 3.5,3.81 5.09,5.85-1.36,3.19-3.44,5.97-5.48,8.74-12.48,18.42-25.36,36.57-37.77,55.03-3.21-1.77-6.2-4.02-9.73-5.12-6.36-2.25-13.51.13-19.66-2.99-4.1-2.31-8.39-4.43-12.05-7.42-2.27-.98-4.46-2.12-6.62-3.29 5.33-10.63 6.08-22.68 8.24-34.18 2.46-11.19 6.43-21.96 9.56-32.96-.06-1.78-.05-3.57.04-5.35-1.68-2.52-3.3-5.5-6.37-6.5-2.16-1.03-4.55-.37-6.82-.3-7.48,3.83-13.08,10.38-17.66,17.28l-1.05-.71c.42,1.68-.48,3.09-1.26,4.45-2.29,3.9-4.95,7.64-6.47,11.93-.19-8.68-1.14-17.34-.91-26.02 .38-16.62.95-33.23.99-49.85 12.16,6.6 24.7,12.5 36.74,19.32 4.25,2.85 8.99,5.12 12.56,8.87-.43,2.08-.87,4.16-1.46,6.2 .11,3.09-.23,6.17-.92,9.18 .29,2.93.34,5.89-.03,8.81 .57,3.95 1.47,7.86 1.88,11.83 .68-.45 1.37-.9 2.07-1.35l1.5,1.4c-4.27-11.66-2.46-24.42-.33-36.34 .18-3.4-.91-6.74-1.02-10.15-2.5-16.8-5.28-33.96-2.7-50.92 .31-3.92 2.74-7.18 3.58-10.95z" fill="#ffce99"/>
 <path d="m122.74,32.67c2.34-.44 4.68-.9 7.03-1.33 3.26,2.48 6.16,6.32 5.19,10.63-2.78,12.74-5.76,25.43-8.46,38.19-.44,1.95-1.01,3.87-1.67,5.76-1,12.04-3.04,23.98-4.45,35.98-.36,3.33.51,6.58 1.13,9.82 1-.1 2.01-.18 3.01-.25-1.23-3.73-1.86-7.67-1.18-11.57 1.62-11.91 3.03-23.85 4.87-35.72 3.17-13.26 5.96-26.61 9.08-39.88 1.63-5.76 9.86-5.68 13.84-2.44 1.74,2.08 1.93,4.99 2.55,7.54 .68,12.4.62,24.82-.1,37.2-.02,11.64.04,23.33-.96,34.93 .91,8.13.99,16.36 1.45,24.53-.29,4.15.64,8.41-.49,12.47 .95,3.01.7,6.19.5,9.29 1.03.36 2.06.73 3.09,1.11-.11-6.55-.98-13.18-.01-19.7 2.53-6.75 6.44-12.85 10.08-19.03 4.53-6.29 9.27-13.25 16.79-16.16 4.51-2.05 10.27,1.98 9.36,6.98-.8,6.85-3.5,13.3-5.32,19.92-2,5.05-2.6,10.51-4.59,15.56-.9,9.8-2.47,19.69-5.85,28.97-4.77,10.9-10.53,21.36-15.08,32.37l-.75-.38c-1.85,5.59-6.13,10.04-10.05,14.3-3.43,3.2-6.51,6.77-10.16,9.73-.88,1.75-1.94,3.41-3.12,4.97-1.17,3.79-3.28,7.21-4.4,11.01-24.53-8.82-49.18-17.31-73.71-26.11 1.1-7.54-.86-15.02-2.3-22.37-2.78-13.46-7-26.96-5.81-40.87 2.46-25.23 8.4-49.98 15.41-74.3 3.39-8.27 5.74-17.11 10.75-24.61l1.08.32c1.11-2.41 3.66-1.12 5.4-.34 1.52,2 .89,4.47.21,6.65-2.74,8.84-4.52,17.97-7.58,26.71-1.63,10.1-3.37,20.3-6.87,29.95-.88,2.33-2.2,4.46-3.64,6.48 .42.05 1.27.17 1.7.22l.14,2.32c7.9-11.35 8.53-25.62 11.66-38.68 2.73-9.74 5.17-19.55 7.93-29.28 2.33-8.36 5.73-16.35 8.46-24.58 1.02-3.06 3.46-6.03 6.77-6.59l2.82-1.12c2.01,1.09 3.91,2.36 5.73,3.75-2.88,11.31-6.41,22.43-9.44,33.69-1.05,3.6-1.87,7.28-3.3,10.76-1.74,9.71-3.94,19.37-6.22,28.98-.46,3.69-.88,7.4-1.78,11.02-1.03,2.33-2.3,4.54-3.59,6.72l2.23-.32c-.21.69-.63,2.06-.85,2.75 2.45-3.52 5.17-7.2 5.58-11.6 1.55-12.14 4.86-23.95 7.25-35.93 3.4-12.4 6.95-24.76 10.47-37.13 1.66-5.65 3.26-11.34 5.7-16.71 .95-1.97 2.84-3.22 4.47-4.58z" fill="#ffce99"/>
 <path d="m239.89,48.5c2.53.46 3.32,2.77 3.78,4.99 .31.97.65,1.94 1.03,2.89 1.3,3.04 2.35,6.2 4.07,9.04 .87,2.03 1.58,4.12 2.45,6.16 .73,1.32 1.41,2.67 2.07,4.03 .47.93.95,1.86 1.43,2.79 .97,2.01 1.97,4.01 2.99,6 .65,1.35 1.32,2.68 2.02,4.01 .5,1.07 1.03,2.13 1.53,3.2 .5.93 1.01,1.86 1.54,2.79 .68,1.67 1.29,3.37 1.91,5.07 .28,1.02.6,2.04.95,3.05 .34,1.04.71,2.06 1.13,3.08 .11.44.34,1.34.45,1.79 .62,1.7.9,3.49 1.47,5.21 .3,1.39.39,2.88 1.21,4.11 .06,1.6.09,3.21.07,4.82-1.63-1.21-2.25-2.96-2.26-4.93-.68-2.42-1.13-4.92-2.48-7.09 1.05-1.6-.68-3.38-.93-4.99-.31-1.02-.63-2.02-.98-3.02-.44-1.41-.99-2.77-1.55-4.13l-1.13-1.92c-1.13-2.28-1.91-4.7-2.88-7.03-.73-1.32-1.42-2.66-2.07-4.01-1.34-2.66-2.68-5.33-3.99-8-.69-1.33-1.36-2.66-2.01-4-.68-1.34-1.36-2.68-2.01-4.02-.25-.49-.74-1.48-.99-1.97-1.37-2.53-2.56-5.14-3.41-7.89-.3-1.02-.63-2.03-.98-3.04-.3-1-.64-2-.99-2.99-.42-1.36-.93-2.68-1.44-4z"/>
 <path d="m79.42,51.24c3.53-.88 8.51-1.36 10.71,2.2l2.21.15c-1.97,4.94-2.99,10.26-5.6,14.93-.33-3.1-3.52-2.89-5.79-3.63-2.1,1.32-4.06,2.84-5.85,4.57-4.86-5.63-2.66-15.42 4.32-18.22z" fill="#ffce99"/>
 <path d="m254.01,55.42 1.6-1.64c.62,1.59 1.33,3.13 2.08,4.66 .53,1.04 1.09,2.08 1.62,3.12 1.31,2.55 2.09,5.31 3.32,7.88 1.34,1.98 2.69,3.95 3.68,6.14 .66,1.33 1.33,2.67 1.98,4.01 1.4,2.55 2.55,5.22 3.51,7.97 .1.46.31,1.38.41,1.84 .41,1.02.78,2.04 1.12,3.09 .36.98.7,1.98 1.03,2.98 .81,1.73.6,3.67.72,5.53h-2c-.11-1.85.08-3.79-.72-5.53-.33-1-.67-2-1.04-2.98-.33-1.05-.7-2.07-1.11-3.09-.1-.46-.3-1.38-.41-1.84-.97-2.75-2.14-5.41-3.47-8-.84-1.41-1.83-2.72-2.68-4.12-.23-.51-.69-1.52-.92-2.02-.83-1.61-1.63-3.23-2.44-4.84-.26-.49-.76-1.47-1.01-1.96-1.41-2.65-2.45-5.45-3.47-8.26l-1.8-2.94z"/>
 <path d="m35.02,139h2.01c-.03,1.76-.05,3.53-.11,5.3-1.84,2.97-.52,6.69-.99,9.99-1.16,1.33-.92,3.09-.95,4.71 .09,7.76-.08,15.53.09,23.3 1.52,1.92.77,4.46.96,6.7h-2.01c-.01-2.1-.02-4.2-.1-6.29-1.62-2.11-.35-4.93-1.54-7.19 2.01-6.51-.98-13.92 1.55-20.23 .47-3.3-.86-7.03 1-9.99 .07-2.1.08-4.2.09-6.3z"/>
 <path d="m272.27,147.38c6.31.87 11.05,5.84 16.51,8.8-16.07,23.79-32.23,47.52-48.29,71.33-5.02-4.1-10.86-7.36-15.11-12.29 15.63-22.61 31.09-45.35 46.89-67.84z" fill="#fff"/>
 <path d="m43,151h2.02c-.01,2.1-.02,4.19-.1,6.29-2.58,4.69.75,10.73-1.86,15.41 .11,2.34-.72,4.99.87,7 .11,3.2.03,6.39.15,9.59 1.32,1.9.58,4.39 1.72,6.38 .22,1.69.05,3.53 1.07,5.02 .09,1.21.15,2.43.23,3.65 1.99,1.52.16,2.96-.95,4.13-.08-.69-.23-2.09-.31-2.78-1.16-1.96-.55-4.38-1.64-6.36-.23-1.7-.05-3.53-1.07-5.02-.23-2.03.29-4.28-1.05-6.02-.12-3.2-.05-6.39-.14-9.59-1.35-1.53-1.34-3.87-.01-5.4 .16-4.53-.02-9.07.14-13.59 1.75-2.56.65-5.83.93-8.71z"/>
 <path d="m183.29,215.41c2.36-2.82 1.75-8.32 6.13-8.8-.83,2.36-1.99,4.58-3.12,6.81l-1.08,1.96c-.87,2.06-1.59,4.18-2.41,6.26-1.16,1.93-2.48,3.77-3.56,5.76-1.12,1.82-2.11,3.7-2.91,5.68-5.04,3.26-8.72,8.14-13.11,12.17-2.04,1.63-2.61,5.07-5.7,5.13 3-6.17 8.2-11.14 13.74-15.12 3.78-4.01 6.63-8.89 9.02-13.85 1.01-2 2.01-4 3-6z"/>
 <path d="m55.4,232.73c14.02,4.37 27.74,9.67 41.62,14.44 13.04,4.62 26.11,9.17 39.12,13.87 .3,5.43-2.54,10.4-3.93,15.53-27.48-9.89-55-19.67-82.43-29.68 1.84-4.73 3.69-9.46 5.62-14.16z" fill="#fff"/>
 <path d="m33.15,263.72c.71-.14 2.14-.43 2.85-.58 .78,2.06 1.54,4.25.64,6.41-.62,2.53-1.55,5.88-4.67,6.12l.58,1.44c-1.57-.6-4.13-.29-4.27-2.55-.97-4.29 1.74-8.19 4.01-11.56l.86.72z" fill="#fff"/>
</svg>